# xmcd
#
# Track frame offsets:
#	150
#	11638
#	22675
#	35373
#	45035
#	58702
#	69515
#	85233
#	97231
#	111208
#	125579
#	138100
#
# Disc length: 1985 seconds
#
# Revision: 1
# Processed by: cddbd v1.5.2PL0 Copyright (c) Steve Scherf et al.
# Submitted via: audiograbber 1.83.01
#
DISCID=9207bf0c
DTITLE=Hollowbelly - BACK ON THE WARD
DYEAR=2012
DGENRE=Blues Punk
TTITLE0=Mark of the caim
TTITLE1=Back of the ward
TTITLE2=Save your soul
TTITLE3=One of these days
TTITLE4=Save your tears for the living
TTITLE5=I dreamt I saw an angel
TTITLE6=You got what I want
TTITLE7=She don't love me no more
TTITLE8=Hold me close
TTITLE9=Found my woman out
TTITLE10=Gonna go down south
TTITLE11=Come knock on my door
EXTD=
EXTT0=
EXTT1=
EXTT2=
EXTT3=
EXTT4=
EXTT5=
EXTT6=
EXTT7=
EXTT8=
EXTT9=
EXTT10=
EXTT11=
PLAYORDER=
